<?xml version="1.0" standalone="no"?><!DOCTYPE svg PUBLIC "-//W3C//DTD SVG 1.1//EN" "http://www.w3.org/Graphics/SVG/1.1/DTD/svg11.dtd"><svg t="1576419270454" class="icon" viewBox="0 0 1410 1024" version="1.1" xmlns="http://www.w3.org/2000/svg" p-id="1891" xmlns:xlink="http://www.w3.org/1999/xlink" width="275.390625" height="200"><defs><style type="text/css"></style></defs><path d="M23.573687 0V825.469388h626.938775L905.498755 1024V825.469388h198.842522V0h-1080.76759zM833.759492 598.399025H294.311427c-23.705148 0-43.199513-19.494365-43.199513-43.199512s19.494365-43.199513 43.199513-43.199513H833.759492c23.705148 0 43.199513 19.494365 43.199513 43.199513s-19.494365 43.199513-43.199513 43.199512z m0-284.461772H294.311427c-23.705148 0-43.199513-19.494365-43.199513-43.199513s19.494365-43.199513 43.199513-43.199513H833.759492c23.705148 0 43.199513 19.494365 43.199513 43.199513S857.46464 313.937253 833.759492 313.937253z" p-id="1892" fill="#f45599"></path></svg>