<?xml version="1.0" standalone="no"?><!DOCTYPE svg PUBLIC "-//W3C//DTD SVG 1.1//EN" "http://www.w3.org/Graphics/SVG/1.1/DTD/svg11.dtd"><svg t="1576434028479" class="icon" viewBox="0 0 1024 1024" version="1.1" xmlns="http://www.w3.org/2000/svg" p-id="24734" xmlns:xlink="http://www.w3.org/1999/xlink" width="200" height="200"><defs><style type="text/css"></style></defs><path d="M786.65208 551.060313H603.503151a54.05234 54.05234 0 0 0-53.906055 53.759769v182.710074c0 131.656579 105.032693 236.469844 237.054984 236.469844 129.316017 0 237.128127-104.740123 237.128127-236.469844a235.445848 235.445848 0 0 0-237.128127-236.469843z m132.022291 365.420148a187.830052 187.830052 0 0 1-132.022291 53.759769 182.856359 182.856359 0 0 1-131.949149-53.759769 186.732914 186.732914 0 0 1-53.906054-131.583436V596.774402h185.855203c51.272923 0 97.060155 18.797634 132.022291 56.392902 35.035278 34.962136 53.832912 83.309357 53.832913 131.656578 0 51.053495-18.797634 96.694443-53.832913 131.656579zM603.430008 473.090361h183.222072c129.316017 0 237.128127-104.66698 237.128127-236.396701 0-131.729721-105.032693-236.469844-237.128127-236.469844-129.242875 0-237.054984 104.740123-237.054984 236.469844v182.636931c0 29.695873 24.283325 53.75977 53.906055 53.75977zM598.090602 234.060528c0-51.053495 18.870776-96.767585 53.906055-131.583436a198.947719 198.947719 0 0 1 134.728566-53.759769c51.272923 0 97.060155 18.797634 132.022291 56.392901 35.035278 34.962136 53.832912 83.309357 53.832912 131.656578 0 51.053495-18.797634 96.767585-53.832912 131.583436a188.34205 188.34205 0 0 1-132.022291 53.75977H598.01746V234.060528zM238.595 548.719751C109.352126 548.719751 0.004023 655.800435 0.004023 787.530156c0 128.950304 105.032693 233.836712 237.054984 233.836712 129.316017 0 237.128127-104.740123 237.128126-236.469843v-182.856359a54.05234 54.05234 0 0 0-53.906054-53.75977l-181.686079 0.438855z m187.17177 236.030989c0 51.126638-18.870776 96.767585-53.906055 131.656578a187.830052 187.830052 0 0 1-131.949149 53.686627 182.856359 182.856359 0 0 1-132.022291-53.686627 187.244912 187.244912 0 0 1-53.979197-131.656578c0-51.053495 18.870776-96.767585 53.906054-131.583436A175.176392 175.176392 0 0 1 236.985864 596.847545h188.707763v187.976337zM236.985864 0.296959A235.445848 235.445848 0 0 0 0.004023 236.766802C0.004023 368.496524 105.036716 473.236646 237.059007 473.236646h183.222072a54.05234 54.05234 0 0 0 53.906054-53.759769v-182.85636C471.554002 105.110224 366.448167 0.443244 237.059007 0.443244z m185.855204 424.519323H234.425875a182.856359 182.856359 0 0 1-131.949148-53.759769 187.318054 187.318054 0 0 1-53.906055-131.656579c0-51.053495 18.870776-96.767585 53.906055-131.583436A178.467807 178.467807 0 0 1 237.205292 48.790465c51.199781 0 97.060155 18.797634 131.949149 56.392901 35.108421 34.962136 53.906055 83.309357 53.906054 131.656579v187.976337h-0.146285z" p-id="24735" fill="#ffffff"></path></svg>