<?xml version="1.0" standalone="no"?><!DOCTYPE svg PUBLIC "-//W3C//DTD SVG 1.1//EN" "http://www.w3.org/Graphics/SVG/1.1/DTD/svg11.dtd"><svg t="1576429057959" class="icon" viewBox="0 0 1024 1024" version="1.1" xmlns="http://www.w3.org/2000/svg" p-id="4997" xmlns:xlink="http://www.w3.org/1999/xlink" width="200" height="200"><defs><style type="text/css"></style></defs><path d="M512 573.866667a42.666667 42.666667 0 0 0-42.666667 42.666666v85.333334h85.333334v-85.333334a42.666667 42.666667 0 0 0-42.666667-42.666666z" p-id="4998" fill="#ffffff"></path><path d="M926.72 763.306667h-34.56a32 32 0 1 1 0-64h34.56v-65.28l-120.32-96a31.573333 31.573333 0 0 1-11.946667-24.746667 32.426667 32.426667 0 0 1 11.946667-25.173333A115.626667 115.626667 0 0 0 833.28 341.333333l-2.133333-3.84A74.666667 74.666667 0 0 0 768 298.666667a32 32 0 0 1 0-64 139.946667 139.946667 0 0 1 118.186667 68.266666l2.133333 3.84a179.626667 179.626667 0 0 1-13.226667 205.226667l104.96 85.333333a31.573333 31.573333 0 0 1 11.946667 25.173334v79.36a64.853333 64.853333 0 0 1-65.28 61.44zM128 763.306667h-30.72a64.853333 64.853333 0 0 1-65.28-64.853334v-79.36a31.573333 31.573333 0 0 1 10.666667-25.173333l104.96-85.333333a180.906667 180.906667 0 0 1-13.226667-203.946667A141.653333 141.653333 0 0 1 256 236.373333 32 32 0 0 1 256 298.666667a73.813333 73.813333 0 0 0-63.146667 35.84 116.48 116.48 0 0 0 23.466667 151.893333 32.426667 32.426667 0 0 1 11.946667 25.173333 30.72 30.72 0 0 1-11.946667 24.746667l-120.32 98.133333v64h33.706667a32 32 0 0 1 0 64zM748.373333 825.173333h-469.333333a74.24 74.24 0 0 1-75.52-74.24v-100.693333a32 32 0 0 1 12.373333-25.173333L355.84 512a218.88 218.88 0 0 1-21.333333-256l2.56-4.693333a167.68 167.68 0 0 1 142.506666-80.213334h66.986667a167.253333 167.253333 0 0 1 142.506667 80.213334l2.56 4.693333a218.88 218.88 0 0 1-21.333334 256L810.666667 625.066667a31.573333 31.573333 0 0 1 11.946666 25.173333v100.693333a73.813333 73.813333 0 0 1-74.24 74.24zM267.52 665.6v85.333333a10.24 10.24 0 0 0 10.24 10.24h469.333333a9.813333 9.813333 0 0 0 9.813334-10.24v-85.333333l-155.733334-125.013333a30.72 30.72 0 0 1-11.946666-24.746667 32 32 0 0 1 11.52-25.173333 154.453333 154.453333 0 0 0 34.986666-199.68l-2.986666-4.693334a102.4 102.4 0 0 0-85.333334-49.493333h-67.84a102.4 102.4 0 0 0-87.466666 49.493333l-2.986667 4.693334a154.453333 154.453333 0 0 0 34.986667 199.68 32 32 0 0 1 11.52 25.173333 30.72 30.72 0 0 1-11.946667 24.746667z" p-id="4999" fill="#ffffff"></path></svg>